<svg width="80" height="87" viewBox="0 0 80 87" fill="none" xmlns="http://www.w3.org/2000/svg">
<g clip-path="url(#clip0)">
<path d="M57.2204 27.587L46.6873 39.0392L50.7656 43.4733L61.2987 32.0211L57.2204 27.587Z" fill="#66C05D"/>
<path d="M35.9094 50.7816L25.3762 62.2338L29.4545 66.6679L39.9877 55.2157L35.9094 50.7816Z" fill="#66C05D"/>
<path d="M50.5173 20.3381L39.9842 31.7902L44.0625 36.2243L54.5956 24.7722L50.5173 20.3381Z" fill="#66C05D"/>
<path d="M29.2355 43.5014L18.7023 54.9536L22.7806 59.3877L33.3138 47.9355L29.2355 43.5014Z" fill="#66C05D"/>
<path d="M22.7576 27.5867L18.6793 32.0208L29.2124 43.473L33.2907 39.0388L22.7576 27.5867Z" fill="#66C05D"/>
<path d="M29.454 20.3304L25.3757 24.7645L35.9089 36.2167L39.9872 31.7826L29.454 20.3304Z" fill="#66C05D"/>
<path d="M50.7592 43.4692L46.6809 47.9033L57.2141 59.3555L61.2924 54.9213L50.7592 43.4692Z" fill="#66C05D"/>
<path d="M44.092 50.7572L40.0137 55.1913L50.5468 66.6435L54.6251 62.2094L44.092 50.7572Z" fill="#66C05D"/>
<path d="M54.6058 71.0998L50.5394 66.6786L40 78.1376L29.4606 66.6786L25.3942 71.0998L40 86.9799L54.6058 71.0998Z" fill="#EFEFEF"/>
<path d="M18.6722 32.031L14.6058 27.6098L0 43.4899L14.6058 59.3701L18.6722 54.9489L8.13278 43.4899L18.6722 32.031Z" fill="#EFEFEF"/>
<path d="M65.3942 27.6098L61.3278 32.031L71.8672 43.4899L61.3278 54.9489L65.3942 59.3701L80 43.4899L65.3942 27.6098Z" fill="#EFEFEF"/>
<path d="M50.5394 20.3013L54.6058 15.8801L40 0L25.3942 15.8801L29.4606 20.3013L40 8.84235L50.5394 20.3013Z" fill="#EFEFEF"/>
</g>
<defs>
<clipPath id="clip0">
<rect width="80" height="86.9799" fill="white"/>
</clipPath>
</defs>
</svg>
